<?xml version="1.0" standalone="no"?>
<!DOCTYPE svg PUBLIC "-//W3C//DTD SVG 20010904//EN"
 "http://www.w3.org/TR/2001/REC-SVG-20010904/DTD/svg10.dtd">
<svg version="1.0" xmlns="http://www.w3.org/2000/svg"
 width="1260.000000pt" height="1260.000000pt" viewBox="0 0 1260.000000 1260.000000"
 preserveAspectRatio="xMidYMid meet">
<metadata>
Created by potrace 1.14, written by Peter Selinger 2001-2017
</metadata>
<g transform="translate(0.000000,1260.000000) scale(0.100000,-0.100000)"
fill="#000000" stroke="none">
<path d="M4846 10334 c-8 -22 -4 -25 11 -9 7 8 9 16 4 19 -5 3 -12 -1 -15 -10z"/>
<path d="M4819 10333 c-1 -5 -1 -12 0 -17 1 -5 -5 -6 -13 -3 -9 4 -18 1 -22
-5 -5 -7 -2 -8 7 -3 11 6 11 5 3 -4 -9 -10 -17 -10 -32 -2 -29 15 -40 14 -17
-2 12 -10 14 -16 7 -21 -7 -4 -12 -4 -12 0 0 3 -8 0 -17 -7 -16 -12 -17 -12
-6 1 10 13 8 18 -6 27 -11 7 -23 8 -32 2 -11 -8 -11 -9 3 -7 16 3 18 1 18 -24
0 -9 -3 -9 -12 0 -8 8 -17 8 -30 1 -10 -5 -23 -7 -28 -4 -5 3 -12 0 -16 -6 -4
-8 -3 -9 4 -5 7 4 12 2 12 -5 0 -10 3 -10 12 -1 17 17 28 15 28 -5 0 -14 -2
-15 -9 -4 -6 10 -10 10 -16 1 -4 -6 -14 -9 -22 -6 -11 5 -13 1 -8 -17 4 -12 3
-17 -2 -11 -11 15 -45 9 -59 -10 -6 -9 -13 -14 -16 -11 -2 3 -5 -2 -5 -10 0
-11 4 -12 11 -5 5 5 14 10 19 10 5 0 2 -7 -7 -15 -8 -8 -20 -15 -26 -15 -8 0
-10 -10 -8 -25 4 -21 3 -23 -9 -14 -11 9 -12 9 -8 -4 4 -9 -2 -21 -15 -30 -17
-12 -18 -16 -6 -20 9 -4 15 -1 13 5 -1 6 5 13 13 15 10 3 11 2 4 -4 -6 -4 -10
-16 -8 -26 1 -9 -1 -15 -4 -13 -4 2 -13 -2 -20 -10 -7 -8 -8 -14 -2 -14 5 0
10 -5 10 -11 0 -5 -4 -7 -10 -4 -5 3 -10 1 -10 -4 0 -6 6 -11 13 -11 8 0 7 -4
-3 -11 -12 -9 -11 -10 8 -6 12 3 20 1 16 -4 -3 -5 -14 -9 -24 -9 -10 0 -22 -5
-26 -12 -4 -6 -3 -8 3 -5 6 4 14 0 17 -9 3 -8 2 -12 -3 -9 -5 3 -13 0 -17 -6
-4 -8 -3 -9 4 -5 16 10 15 -7 0 -23 -7 -8 -8 -11 -3 -9 6 3 16 0 23 -8 11 -12
9 -14 -8 -14 -11 0 -20 -5 -20 -11 0 -6 9 -8 23 -3 21 6 21 6 -3 -14 -24 -20
-25 -21 -6 -39 10 -10 16 -13 12 -6 -7 12 18 12 31 -1 4 -4 1 -6 -7 -4 -8 2
-14 -3 -12 -10 1 -8 -2 -11 -8 -7 -5 3 -10 3 -10 0 0 -9 27 -35 31 -30 3 2 5
-10 5 -26 1 -16 -2 -29 -7 -29 -4 0 -6 8 -5 18 2 9 -3 23 -11 31 -12 11 -14
10 -11 -5 2 -11 8 -22 13 -26 6 -5 4 -8 -5 -8 -13 0 -13 -1 0 -10 12 -8 13
-12 2 -19 -10 -6 -6 -11 16 -19 17 -6 34 -7 38 -4 4 4 3 0 -2 -8 -5 -8 -9 -18
-9 -22 0 -3 -3 -10 -7 -14 -4 -3 -5 4 -3 16 3 18 2 21 -7 12 -15 -15 -31 -16
-22 0 5 7 3 8 -6 3 -9 -5 -4 -14 16 -30 17 -14 32 -19 35 -13 4 5 9 3 12 -5 4
-10 0 -14 -11 -12 -9 1 -20 -2 -24 -8 -8 -14 2 -38 13 -31 9 5 13 -14 9 -54
-1 -13 7 -30 17 -38 17 -14 16 -15 -7 -10 -14 3 -19 3 -12 0 6 -3 10 -10 6
-15 -7 -12 2 -11 29 2 22 10 22 10 2 -6 -22 -18 -23 -23 -3 -37 10 -8 9 -9 -4
-4 -10 3 -20 0 -24 -6 -5 -7 -2 -8 6 -3 10 6 12 4 8 -7 -4 -8 2 -22 12 -31 14
-12 18 -25 15 -52 -4 -26 -2 -34 7 -29 7 4 8 3 4 -5 -4 -6 -12 -9 -17 -6 -5 4
-12 -1 -15 -10 -4 -9 -10 -13 -13 -8 -12 17 -64 34 -74 24 -6 -6 -3 -9 8 -8
10 1 20 -5 22 -13 4 -13 3 -13 -5 -1 -9 13 -13 13 -28 0 -15 -12 -17 -12 -9 0
6 11 4 13 -8 8 -11 -4 -17 -1 -17 9 0 8 -4 13 -10 9 -5 -3 -6 -13 -3 -23 6
-16 6 -16 -11 1 -23 23 -30 22 -23 -4 4 -17 3 -19 -6 -10 -14 14 -30 15 -22 1
7 -11 -23 -2 -45 14 -13 9 -13 9 -3 -5 7 -9 10 -19 6 -22 -3 -4 0 -7 7 -7 7 0
11 -2 8 -5 -9 -9 -38 7 -32 17 3 5 -3 4 -15 -4 -16 -9 -20 -20 -17 -40 3 -17
0 -27 -7 -25 -7 1 -11 -5 -9 -13 3 -12 0 -11 -15 2 -12 11 -23 14 -32 9 -11
-7 -9 -10 7 -15 19 -6 18 -8 -10 -36 -38 -38 -51 -39 -15 -2 19 20 23 29 13
29 -8 0 -14 -5 -13 -11 1 -6 -7 -10 -18 -8 -16 2 -17 1 -5 -7 13 -10 8 -15
-12 -12 -4 0 -4 -11 -2 -26 4 -22 3 -24 -10 -14 -12 10 -14 8 -9 -11 3 -13 11
-29 16 -36 8 -10 7 -12 -4 -10 -8 2 -13 -3 -11 -10 1 -8 -2 -11 -8 -7 -6 3 -8
10 -6 14 3 4 -1 8 -8 8 -8 0 -12 -7 -8 -15 3 -10 1 -13 -6 -8 -15 9 -26 -12
-13 -28 6 -7 7 -17 3 -21 -4 -5 -1 -5 6 -1 7 4 10 11 8 15 -3 4 0 13 5 21 7
11 8 8 5 -10 -3 -14 -5 -29 -5 -34 -1 -4 -11 -6 -23 -3 -22 6 -22 6 2 -14 l25
-19 -28 10 c-21 7 -26 7 -21 -2 4 -6 -2 -18 -12 -26 -12 -9 -13 -13 -4 -10 10
4 20 -3 27 -18 6 -13 8 -22 5 -21 -4 2 -15 -5 -25 -15 -17 -18 -17 -19 0 -16
10 2 22 8 26 13 5 6 7 4 4 -5 -2 -8 -10 -14 -16 -13 -6 2 -11 -4 -11 -13 0 -9
5 -12 12 -8 7 4 8 3 4 -5 -4 -6 -13 -9 -19 -5 -7 3 -3 -2 8 -11 19 -16 19 -16
-7 -11 -16 3 -28 0 -28 -6 0 -5 7 -8 15 -4 8 3 15 1 15 -5 0 -6 6 -7 13 -3 9
6 9 4 -1 -8 -7 -9 -12 -20 -11 -24 4 -23 -3 -33 -21 -29 -12 2 -18 0 -15 -6 4
-5 10 -7 15 -4 5 3 11 1 14 -4 3 -5 -1 -12 -10 -15 -9 -4 -14 -9 -11 -13 4 -3
1 -13 -6 -21 -9 -13 -9 -14 1 -8 7 4 12 2 12 -4 0 -6 5 -8 11 -4 8 4 7 9 -2
15 -10 6 -7 8 9 6 13 -1 18 -5 13 -10 -5 -5 -7 -17 -4 -26 3 -10 2 -12 -4 -6
-13 17 -38 11 -35 -8 2 -10 -3 -16 -10 -15 -7 2 -12 -3 -10 -9 1 -7 -4 -13
-10 -13 -9 0 -8 -4 2 -10 13 -9 13 -11 0 -19 -8 -5 -18 -7 -24 -4 -5 3 -6 1
-2 -6 4 -6 17 -9 29 -6 12 3 6 -3 -13 -14 -19 -10 -38 -17 -43 -14 -4 2 -6 -1
-5 -9 2 -7 -3 -12 -9 -10 -7 1 -13 -3 -13 -9 0 -6 6 -9 14 -6 13 5 14 1 7 -32
-1 -2 -7 1 -14 7 -7 6 -18 7 -26 3 -9 -6 -10 -11 -2 -15 6 -4 11 -2 11 5 0 7
3 10 6 6 3 -3 1 -14 -5 -24 -6 -11 -11 -13 -11 -5 0 7 -5 10 -10 7 -6 -4 -7
-12 -3 -18 4 -8 1 -7 -9 1 -13 10 -18 10 -24 1 -4 -7 -3 -9 3 -6 6 4 13 0 16
-8 4 -10 1 -12 -11 -8 -9 4 -20 11 -24 17 -4 6 -6 1 -5 -12 1 -14 6 -21 15
-17 7 2 10 0 7 -5 -4 -6 -14 -9 -23 -8 -9 2 -17 -4 -17 -12 0 -8 -6 -16 -12
-16 -7 -1 -18 -2 -24 -3 -5 0 -8 -5 -5 -10 3 -5 -2 -15 -11 -22 -9 -8 -14 -9
-10 -3 4 7 1 14 -7 17 -16 6 -17 -33 -1 -46 6 -5 4 -7 -5 -6 -31 3 -40 -2 -40
-22 0 -13 4 -18 12 -13 7 4 8 3 4 -5 -4 -6 -11 -9 -16 -6 -15 10 -22 -15 -9
-33 8 -9 1 -6 -15 8 -28 24 -28 24 -17 3 10 -19 9 -23 -4 -23 -8 0 -15 -5 -15
-11 0 -5 4 -8 9 -5 8 5 8 -3 1 -34 0 -3 -8 4 -16 15 -16 20 -16 19 -9 -4 5
-17 4 -21 -5 -16 -9 6 -9 1 1 -16 11 -21 10 -23 -3 -11 -13 10 -15 8 -10 -15
3 -16 7 -22 9 -15 3 6 9 12 15 12 6 0 5 -7 -3 -16 -12 -14 -14 -14 -25 0 -11
15 -12 15 -18 1 -4 -11 -2 -14 6 -9 7 5 9 2 5 -9 -4 -10 -1 -15 6 -13 7 1 8 1
4 -2 -4 -2 -2 -11 5 -20 12 -15 11 -16 -4 -4 -18 14 -43 7 -32 -9 3 -5 9 -7
14 -4 5 3 12 0 16 -6 4 -8 3 -9 -4 -5 -7 4 -12 2 -12 -4 0 -6 -5 -8 -12 -4 -6
4 -8 3 -4 -4 3 -6 15 -9 26 -7 12 2 18 0 15 -6 -4 -5 -11 -6 -17 -3 -8 5 -9 1
-4 -11 7 -18 6 -18 -16 0 -13 11 -17 13 -10 5 15 -18 16 -44 0 -34 -7 4 -8 3
-4 -5 6 -9 11 -9 22 0 17 14 19 -2 2 -20 -11 -12 -10 -13 6 -7 15 5 17 4 8 -7
-7 -8 -9 -17 -5 -20 3 -4 0 -14 -8 -23 -12 -15 -11 -16 11 -10 21 6 22 5 7 -4
-12 -8 -15 -16 -8 -28 13 -26 -4 -63 -26 -55 -10 3 -15 3 -11 -1 5 -6 25 -12
49 -15 4 -1 9 -8 13 -16 5 -13 2 -14 -17 -4 -21 12 -21 11 -4 -8 19 -22 24
-44 5 -25 -7 7 -16 12 -22 12 -5 0 -1 -6 9 -14 11 -8 24 -12 29 -8 5 3 7 -1 4
-10 -4 -8 -2 -21 2 -28 5 -8 6 -19 2 -25 -3 -5 -7 -16 -8 -23 -2 -10 1 -10 11
-2 8 6 12 20 10 31 -2 10 0 19 4 19 13 0 10 -54 -3 -63 -6 -5 0 -5 13 -2 19 6
23 4 18 -9 -4 -9 1 -20 11 -25 9 -6 12 -11 6 -11 -16 0 -36 25 -27 34 4 4 0 4
-10 0 -9 -3 -17 -10 -17 -16 0 -5 4 -7 10 -3 5 3 16 -7 24 -22 8 -15 15 -22
16 -14 0 8 3 12 6 8 3 -3 2 -12 -2 -19 -14 -22 -12 -34 7 -46 13 -8 19 -9 19
-1 0 5 4 7 10 4 6 -4 5 -11 -3 -20 -10 -11 -15 -10 -32 3 -20 17 -20 17 -2 -4
9 -11 15 -23 12 -26 -3 -2 2 -5 10 -5 8 0 12 4 9 8 -2 4 -1 10 4 13 9 5 11 -2
14 -54 1 -16 5 -30 10 -30 5 0 6 6 2 13 -4 6 5 1 19 -12 27 -24 36 -37 18 -27
-5 3 -11 -3 -14 -15 -4 -16 -3 -18 8 -9 9 8 14 6 19 -5 3 -9 10 -14 15 -10 5
3 13 1 16 -5 4 -6 1 -9 -7 -8 -8 2 -12 -4 -10 -16 2 -11 -1 -15 -8 -11 -6 4
-9 14 -6 22 4 9 2 11 -6 7 -7 -5 -8 -2 -3 7 5 8 4 11 -1 6 -5 -5 -9 -14 -9
-20 -1 -16 35 -48 46 -41 5 3 9 0 9 -6 0 -7 -9 -9 -22 -6 -13 3 -17 3 -10 0
10 -5 9 -11 -5 -27 l-18 -21 29 18 c29 19 28 9 -3 -28 -16 -19 -15 -19 14 0
l30 18 -19 -22 c-19 -22 -10 -32 11 -11 9 9 11 7 9 -7 -2 -11 -8 -19 -14 -19
-6 0 -14 -4 -19 -9 -4 -5 -3 -6 4 -2 6 3 14 2 18 -4 3 -5 0 -10 -7 -10 -8 0
-6 -5 5 -11 13 -8 15 -14 8 -23 -8 -9 -7 -13 3 -13 15 0 16 14 3 35 -5 7 -3
12 3 12 6 0 8 6 4 13 -4 6 -3 8 2 4 4 -4 9 -20 10 -35 1 -15 2 -27 4 -27 1 0
3 -10 4 -22 2 -14 -2 -19 -11 -16 -7 3 -13 0 -13 -7 0 -6 4 -9 9 -5 5 3 16 -1
24 -9 8 -8 18 -12 23 -8 5 4 2 -1 -5 -10 -10 -14 -11 -18 -1 -18 10 0 10 -4
-1 -16 -10 -13 -10 -17 0 -24 10 -5 10 -9 2 -14 -8 -5 -1 -18 20 -36 17 -17
27 -34 24 -41 -6 -8 -2 -8 13 0 32 17 37 13 11 -9 -15 -12 -18 -19 -9 -18 8 2
14 -3 13 -9 -4 -16 2 -16 27 -3 16 8 18 7 14 -4 -3 -8 -13 -17 -22 -19 -11 -3
-8 -5 8 -7 14 -1 28 -2 32 -1 4 0 5 -6 1 -15 -3 -8 3 -21 13 -30 18 -14 18
-15 -3 -5 -15 8 -29 8 -45 1 l-23 -11 25 5 25 5 -24 -18 c-16 -12 -21 -23 -16
-32 7 -12 6 -12 -7 -1 -9 8 -14 20 -11 28 3 8 0 14 -5 14 -11 0 -9 -31 3 -50
3 -6 1 -10 -4 -10 -6 0 -11 5 -11 10 0 6 -5 10 -11 10 -5 0 -7 -4 -4 -10 3 -5
1 -10 -4 -10 -6 0 -11 -7 -11 -15 0 -8 -4 -15 -10 -15 -5 0 -9 -6 -7 -12 1 -8
-7 -12 -22 -10 -16 3 -21 0 -16 -9 6 -8 4 -10 -6 -3 -23 14 -36 13 -35 -5 1
-11 -6 -16 -21 -15 -13 1 -20 -3 -17 -7 3 -5 10 -7 15 -4 5 4 9 -2 9 -11 0
-10 -3 -14 -7 -11 -6 7 -39 -33 -36 -44 1 -3 -9 -4 -22 -1 -21 3 -23 1 -18
-19 6 -20 5 -21 -9 -8 -9 7 -13 18 -10 23 3 5 0 6 -5 3 -6 -4 -10 -20 -9 -36
2 -24 -1 -28 -13 -22 -19 10 -43 3 -35 -10 5 -8 -9 -13 -28 -10 -5 0 -8 -4 -8
-9 0 -18 34 -6 47 15 10 16 12 17 13 4 0 -9 -7 -22 -15 -29 -8 -7 -15 -9 -15
-5 0 4 -7 1 -17 -6 -9 -8 -19 -13 -22 -11 -3 2 -8 -4 -9 -14 -3 -10 0 -14 7
-9 6 3 8 11 5 17 -4 7 -2 8 5 4 8 -6 9 -12 2 -20 -6 -7 -7 -17 -3 -22 4 -4 0
-3 -8 3 -10 7 -21 8 -30 3 -8 -5 -17 -7 -21 -4 -4 2 -11 -1 -15 -7 -4 -8 -3
-9 5 -5 8 5 11 -2 9 -23 -1 -16 -5 -29 -8 -29 -18 2 -21 -4 -9 -19 8 -10 9
-14 2 -10 -17 10 -28 -13 -12 -25 11 -8 10 -9 -3 -5 -17 6 -33 -18 -22 -34 3
-5 -3 -9 -13 -9 -10 0 -14 -4 -8 -8 6 -4 11 -16 13 -27 l4 -20 -16 20 c-15 20
-15 20 -9 -2 3 -15 1 -23 -8 -23 -7 0 -4 -7 9 -16 12 -8 22 -20 22 -25 0 -6
-7 -3 -16 5 -16 17 -39 12 -28 -5 3 -5 10 -7 15 -3 6 3 5 -3 -3 -15 -10 -16
-10 -23 0 -33 9 -9 8 -16 -5 -30 -16 -18 -16 -18 0 -12 9 3 17 2 17 -4 0 -16
-23 -9 -55 17 -45 34 -162 87 -240 107 -75 19 -315 26 -425 12 -164 -21 -421
-96 -624 -183 -194 -83 -481 -233 -714 -374 -24 -14 -51 -30 -60 -36 -146 -87
-302 -228 -361 -329 -36 -61 -96 -211 -104 -261 -3 -16 -8 -41 -11 -55 -21
-87 -45 -298 -61 -532 -2 -26 1 -36 9 -31 10 6 75 55 101 76 111 91 566 394
735 490 19 11 69 39 110 62 284 161 671 319 883 361 205 40 394 52 460 29 57
-20 77 -42 77 -87 0 -167 -413 -543 -920 -838 -69 -40 -210 -115 -315 -167
-281 -139 -342 -171 -430 -226 -222 -136 -328 -267 -413 -508 -50 -142 -60
-265 -25 -301 18 -18 25 -19 56 -9 19 7 61 32 93 57 144 110 173 131 242 176
40 27 76 48 79 48 4 0 14 6 22 14 44 40 374 191 556 256 258 91 457 88 550 -7
38 -39 74 -124 82 -193 l5 -45 -59 -30 c-868 -444 -1647 -1090 -1869 -1551
-70 -145 -51 -219 86 -347 64 -59 90 -77 122 -82 166 -28 585 156 936 412 179
131 256 196 392 333 337 337 558 696 673 1092 l32 111 115 54 c63 29 138 64
165 78 l50 23 7 -91 c14 -176 57 -306 130 -399 104 -131 213 -182 381 -177
180 5 335 67 530 212 80 60 359 330 427 415 39 48 47 51 47 20 -2 -93 45 -287
91 -373 58 -110 118 -139 192 -94 44 27 69 55 183 203 249 324 369 466 395
466 7 0 11 6 10 13 -2 6 5 11 14 11 10 -1 15 2 12 7 -3 5 0 9 6 9 6 0 8 5 4
11 -5 8 -1 8 14 0 16 -8 24 -8 36 4 17 17 30 20 21 5 -3 -5 -2 -10 3 -10 5 0
12 9 15 20 4 15 10 18 24 13 16 -6 17 -5 3 13 -14 18 -14 18 4 4 15 -11 20
-12 23 -2 8 21 21 13 19 -11 -2 -14 2 -24 10 -24 6 0 11 5 10 11 -2 6 -1 8 1
3 3 -4 10 -4 16 0 8 5 8 2 0 -9 -7 -8 -9 -19 -5 -23 4 -5 -2 -5 -13 -1 -16 6
-17 5 -8 -5 12 -12 12 -14 -79 -175 -103 -181 -137 -290 -134 -423 3 -78 7
-100 32 -148 62 -120 195 -137 354 -43 52 31 150 104 214 160 70 61 135 120
210 191 45 42 115 108 156 147 41 39 76 70 76 69 1 -1 5 -24 8 -52 12 -92 18
-120 43 -205 51 -177 126 -290 224 -341 64 -34 200 -34 284 0 63 25 226 128
285 181 166 147 400 409 400 448 0 16 177 189 184 181 2 -2 -23 -78 -56 -168
-90 -249 -108 -325 -105 -445 2 -88 6 -109 30 -158 112 -229 358 -192 730 110
113 91 150 126 314 290 l143 142 1 -82 c0 -46 2 -90 3 -98 2 -8 6 -36 9 -61
13 -108 56 -208 103 -243 36 -26 94 -32 131 -13 16 9 52 42 78 74 27 32 52 60
55 63 3 3 46 57 95 120 97 125 194 243 295 360 36 42 90 105 120 140 123 146
250 262 377 344 73 47 93 56 73 34 -51 -58 -269 -420 -339 -562 -149 -305
-167 -550 -45 -642 34 -26 45 -29 113 -29 62 0 87 5 135 28 145 68 291 186
598 487 l148 145 -1 82 -1 83 -27 -20 c-139 -107 -300 -217 -375 -256 -74 -39
-101 -48 -143 -49 -65 0 -99 28 -109 90 -18 121 81 299 351 634 182 225 185
230 185 268 0 46 -34 113 -83 165 -77 81 -127 87 -243 28 -153 -76 -362 -250
-659 -545 -184 -183 -410 -421 -455 -478 -12 -15 -24 -27 -28 -27 -4 0 -7 65
-6 146 l1 145 62 69 c34 38 109 125 168 192 58 68 115 134 127 148 53 61 431
539 527 665 311 411 705 985 796 1160 32 62 49 132 36 150 -31 43 -154 83
-215 71 -16 -3 -49 -20 -74 -37 -65 -44 -243 -225 -359 -364 -54 -66 -102
-122 -105 -125 -11 -9 -204 -261 -307 -400 -243 -330 -710 -1009 -810 -1180
-92 -157 -147 -291 -173 -420 -10 -51 -15 -58 -77 -105 -36 -27 -70 -55 -77
-61 -20 -18 -199 -149 -257 -186 -226 -148 -371 -122 -378 67 -3 83 14 183 51
295 39 116 163 365 281 562 l88 147 52 -4 c102 -7 223 -17 255 -20 29 -2 36 3
85 69 117 156 307 450 307 475 0 8 -148 31 -201 31 -55 0 -52 13 22 116 39 54
74 101 78 104 13 11 78 97 99 131 29 48 28 71 -6 91 -62 37 -190 26 -285 -25
-86 -45 -205 -185 -290 -339 l-32 -58 -72 0 c-56 0 -73 3 -73 14 0 9 7 12 21
9 16 -4 20 -2 17 8 -3 8 -1 22 3 31 6 11 5 19 -3 24 -7 4 -8 3 -4 -4 4 -8 2
-10 -8 -6 -12 5 -11 9 5 25 11 11 18 23 15 27 -3 4 5 8 17 9 12 0 16 -1 9 -4
-21 -8 -34 -40 -17 -46 9 -4 12 -1 9 7 -3 7 2 18 10 25 19 16 9 54 -13 46 -11
-5 -10 -1 4 13 11 10 22 16 25 13 3 -3 12 -7 20 -9 12 -3 12 0 -2 14 -15 15
-15 20 7 62 19 37 21 50 12 62 -10 13 -10 13 5 2 9 -8 14 -20 11 -28 -3 -8 0
-14 6 -14 6 0 10 3 10 8 -3 19 2 33 10 28 11 -7 8 20 -3 31 -4 4 -6 3 -4 -3 3
-11 -1 -14 -18 -14 -4 0 -1 7 6 15 7 8 15 13 19 11 3 -2 12 3 20 11 11 12 10
14 -4 11 -10 -2 -20 4 -22 12 -4 12 -3 12 5 1 7 -9 12 -10 16 -2 4 6 11 9 15
6 5 -2 7 9 5 26 -2 16 0 28 4 25 4 -2 14 0 22 6 12 8 12 9 -2 4 -10 -3 -18 0
-18 6 0 6 -7 5 -17 -3 -16 -13 -17 -12 -4 3 7 10 18 15 24 11 6 -4 8 0 4 10
-3 10 -2 17 3 17 6 0 10 -5 10 -12 0 -6 3 -8 7 -5 3 4 -2 17 -13 28 -19 22
-19 22 3 10 16 -8 24 -8 29 1 5 7 3 8 -6 3 -10 -6 -12 -4 -7 9 4 10 7 20 7 22
0 3 5 2 11 -2 6 -3 4 8 -5 24 -20 39 -21 52 -1 26 11 -13 14 -14 13 -4 -2 8 3
14 10 12 8 -1 11 2 7 8 -3 6 -10 8 -14 6 -4 -3 -12 4 -19 15 -7 11 -8 19 -2
19 5 0 10 -4 10 -10 0 -14 27 -13 36 2 5 8 2 9 -12 4 -10 -4 -15 -4 -11 0 4 4
-1 16 -10 27 -10 11 -12 17 -5 13 8 -5 16 1 21 16 6 14 10 17 10 8 1 -9 -4
-21 -10 -27 -7 -7 -6 -12 4 -16 12 -4 15 3 13 34 -1 28 3 39 14 40 10 0 11 2
3 6 -7 2 -13 9 -13 14 0 6 5 7 12 3 6 -4 8 -3 4 4 -3 6 -1 14 5 18 8 5 4 13
-12 26 -15 11 -18 16 -6 12 19 -7 24 12 5 19 -7 3 -2 6 12 6 19 1 22 3 10 10
-8 6 -18 7 -24 4 -5 -3 -6 -1 -2 6 4 6 12 9 17 6 5 -4 6 3 0 17 -4 13 -6 36
-4 51 3 21 0 27 -8 21 -8 -4 -9 -3 -5 5 6 9 11 9 21 1 10 -8 12 -4 10 18 -1
15 -7 38 -14 49 -9 17 -8 25 5 37 10 11 11 16 3 16 -7 0 -9 3 -6 6 3 4 2 15
-3 25 -7 12 -6 19 2 21 7 3 5 7 -6 11 -12 5 -15 3 -10 -6 4 -6 3 -8 -1 -4 -12
10 -16 39 -5 32 5 -3 12 -1 15 5 4 6 3 10 -2 9 -18 -3 -33 2 -33 11 0 5 8 7
18 4 13 -5 14 -4 3 4 -8 6 -21 8 -30 4 -9 -3 -13 -2 -9 3 10 10 -10 47 -22 40
-5 -3 -12 0 -16 6 -4 8 -3 9 4 5 7 -4 12 -1 13 6 0 7 2 22 3 33 3 23 -26 28
-54 11 -13 -8 -13 -7 -2 7 9 11 11 21 4 33 -8 15 -9 15 -15 0 -5 -11 -3 -15 5
-10 7 4 8 3 4 -4 -13 -21 -27 -12 -24 15 2 19 -2 28 -12 28 -8 1 -14 6 -13 12
3 15 -76 7 -107 -11 -8 -5 -12 -6 -8 -1 4 4 3 13 -2 20 -7 8 -5 12 5 12 8 0
12 -4 9 -8 -5 -9 35 -3 44 6 5 5 1 6 -35 9 -10 1 -24 5 -31 9 -7 5 -12 5 -11
0 3 -20 -2 -34 -11 -28 -6 4 -7 12 -4 18 5 9 4 9 -5 1 -10 -9 -19 -9 -39 2
-14 7 -29 11 -34 8 -4 -3 -8 0 -8 6 0 6 -4 9 -9 6 -4 -3 -8 6 -7 19 1 29 -33
85 -51 85 -7 0 -13 5 -13 12 0 6 -2 9 -5 6 -8 -8 6 -39 15 -33 5 3 11 1 14 -4
4 -5 -1 -8 -10 -7 -8 1 -20 9 -25 17 -6 10 -9 10 -9 2 0 -7 -4 -13 -9 -13 -6
0 -4 12 4 27 15 28 10 48 -5 23 -5 -8 -12 -11 -16 -7 -4 4 -14 1 -23 -6 -14
-11 -14 -10 -2 5 7 10 18 15 25 11 6 -4 5 1 -3 10 -9 12 -10 17 -2 17 7 0 9 5
5 11 -4 8 -9 7 -15 -2 -4 -7 -5 -17 -3 -21 3 -4 1 -8 -4 -8 -15 0 -22 28 -9
34 7 3 6 5 -3 5 -8 -1 -22 -1 -30 0 -13 1 -13 2 0 11 9 6 10 10 3 10 -6 0 -15
-5 -19 -11 -5 -8 -10 -6 -16 5 -6 11 -6 21 1 29 7 9 5 13 -8 13 -13 0 -17 -6
-14 -21 2 -11 1 -15 -3 -8 -3 7 -11 11 -17 9 -7 -1 -9 -1 -4 1 4 3 7 9 7 14 0
6 -5 7 -10 4 -6 -3 -15 4 -20 17 -9 21 -10 20 -5 -7 4 -25 3 -27 -6 -12 -9 15
-13 16 -27 5 -12 -9 -11 -6 2 10 11 12 16 25 13 29 -4 3 -7 1 -7 -5 0 -7 -7
-12 -16 -12 -9 0 -12 5 -8 13 6 9 4 9 -7 0 -16 -16 -29 -17 -29 -2 0 5 6 7 13
3 6 -4 3 2 -7 14 -11 12 -24 22 -29 22 -6 0 -2 -6 8 -14 18 -13 18 -14 -6 -26
-21 -12 -22 -11 -12 2 11 12 9 17 -12 26 -20 9 -23 9 -18 -3 3 -8 10 -12 16
-8 6 3 7 1 3 -5 -16 -26 -44 7 -36 43 1 6 -10 -1 -24 -14 -14 -14 -29 -21 -33
-18 -3 4 -2 7 4 7 6 0 13 10 16 23 5 19 4 20 -6 5 -10 -15 -14 -14 -46 10 -19
15 -32 22 -29 17 4 -6 -2 -17 -14 -24 -11 -7 -17 -8 -13 -2 7 12 -8 15 -19 4
-23 -24 -42 3 -23 33 4 7 -3 12 -18 12 -15 0 -22 -5 -18 -12 3 -6 2 -8 -2 -3
-11 10 -14 48 -3 41 4 -3 8 0 8 6 0 6 5 8 13 4 8 -5 8 -2 -2 9 -14 18 -26 23
-17 8 7 -11 -21 -8 -31 4 -5 4 -2 5 6 0 11 -6 13 -4 8 8 -3 9 -2 19 4 23 6 4
6 11 -2 20 -9 11 -9 14 1 14 8 0 11 3 7 6 -3 3 -11 3 -17 -1 -8 -5 -8 -11 1
-21 10 -12 9 -13 -4 -8 -8 3 -18 12 -21 20 -3 9 -1 12 4 9 13 -8 13 -2 -2 30
-6 14 -18 24 -26 23 -8 -2 -17 3 -19 10 -3 6 0 12 7 12 6 0 8 -5 4 -12 -4 -7
-3 -8 5 -4 8 6 9 12 2 20 -6 7 -8 15 -5 19 3 3 -5 4 -19 3 -17 -2 -24 1 -20
10 2 7 10 12 16 10 7 -1 9 -1 5 1 -5 3 -8 12 -9 21 0 12 -3 10 -9 -5 -5 -13
-17 -22 -27 -22 -17 1 -17 2 0 6 9 2 15 9 11 14 -3 5 -10 7 -15 4 -5 -4 -9 0
-9 7 0 10 -3 9 -11 -2 -8 -11 -9 -9 -3 10 6 23 6 24 -11 10 -17 -14 -18 -13
-12 2 3 10 0 24 -9 33 -18 17 -34 20 -34 4 0 -5 4 -8 9 -5 5 3 15 -2 22 -12 7
-9 9 -14 5 -10 -5 4 -16 2 -24 -5 -10 -7 -13 -8 -9 -1 8 14 -16 37 -29 26 -4
-4 -3 0 3 8 10 13 7 15 -20 15 -18 0 -39 -4 -47 -9 -12 -8 -13 -7 -4 5 9 11 7
18 -6 32 -13 14 -20 15 -26 6 -4 -7 -3 -10 3 -6 5 3 10 0 10 -8 0 -11 -4 -12
-13 -4 -7 6 -22 8 -34 4 -11 -4 -20 -2 -20 4 0 15 -33 14 -49 -1 -11 -10 -13
-10 -7 0 4 6 2 12 -4 12 -6 0 -8 5 -5 10 3 6 1 10 -4 10 -6 0 -11 -10 -11 -22
l0 -22 -16 22 c-14 20 -42 22 -29 2 3 -4 -2 -11 -10 -14 -11 -4 -14 0 -12 17
2 12 2 16 0 9 -3 -7 -9 -9 -15 -6 -7 5 -8 2 -3 -6 6 -10 4 -12 -8 -7 -9 3 -19
1 -23 -5 -4 -6 -3 -8 3 -5 6 4 19 0 29 -9 18 -14 18 -15 -3 -4 -17 8 -23 8
-23 0 0 -6 -12 2 -26 17 -15 15 -21 21 -15 12 6 -9 7 -20 3 -24 -4 -5 0 -4 8
0 13 8 13 7 1 -8 -15 -18 -26 -23 -16 -7 3 6 -1 10 -9 10 -28 0 -31 1 -51 18
-20 17 -20 17 -2 -4 9 -11 14 -25 10 -29 -5 -5 -1 -4 9 3 13 11 18 10 24 0 4
-7 4 -10 -1 -6 -4 4 -15 3 -22 -4 -11 -9 -16 -9 -23 2 -7 11 -11 11 -24 1 -11
-9 -16 -10 -16 -2 0 6 -5 11 -11 11 -8 0 -7 -5 1 -15 7 -9 11 -16 9 -18 -38
-21 -49 -25 -54 -18 -3 5 -11 8 -18 7 -21 -3 -38 -17 -32 -27 5 -7 -13 -13
-36 -11 -3 1 -6 -6 -7 -14 -1 -8 -3 -20 -4 -28 -1 -9 -13 -13 -39 -12 -20 0
-35 -3 -32 -7 6 -10 -16 -37 -30 -37 -6 0 -2 7 9 15 19 14 19 14 -1 11 -18 -4
-20 2 -20 58 0 51 3 62 17 62 14 0 15 -3 5 -16 -6 -8 -1 -6 12 5 13 11 25 18
26 15 2 -3 7 -2 11 2 3 4 -3 6 -15 3 -18 -3 -20 -1 -11 16 6 10 13 19 16 19 3
0 3 -4 0 -8 -2 -4 4 -8 14 -8 10 0 17 3 14 7 -7 12 25 31 38 23 9 -5 8 -2 -2
10 -16 21 -22 46 -10 46 5 0 12 -10 15 -21 6 -17 9 -19 16 -8 5 8 2 20 -8 31
-10 11 -12 18 -5 18 7 0 12 -4 12 -8 0 -11 38 -13 45 -2 2 4 -1 7 -8 6 -6 0
-12 4 -12 9 0 6 6 9 13 8 9 -1 12 6 9 19 -4 15 -3 17 9 7 11 -9 15 -7 21 7 6
16 9 14 19 -11 10 -23 13 -25 14 -10 0 17 2 17 10 5 6 -9 10 -10 10 -3 0 7 -8
17 -17 23 -17 11 -17 11 -1 6 10 -3 24 2 33 10 8 9 15 12 15 7 0 -5 -5 -14
-11 -20 -8 -8 -7 -13 3 -18 7 -5 10 -5 6 -1 -10 11 14 34 29 29 14 -5 18 12 6
20 -5 2 -2 2 6 0 8 -2 11 2 7 12 -3 10 -2 13 5 10 6 -4 8 -13 5 -21 -3 -7 0
-16 6 -20 7 -5 8 -2 3 6 -6 10 -4 12 10 6 15 -5 16 -4 5 9 -10 12 -10 15 3 15
8 0 18 -6 20 -12 4 -10 6 -10 6 0 1 7 5 11 10 8 5 -4 8 5 7 18 -2 16 1 23 10
19 7 -2 12 -10 10 -16 -1 -7 -1 -9 1 -4 3 4 9 7 14 7 6 0 8 -4 5 -8 -3 -5 1
-9 9 -9 10 0 10 5 -3 23 -9 12 -21 19 -26 16 -5 -3 -6 0 -2 6 5 9 13 9 27 2
15 -9 19 -7 19 5 0 10 -5 13 -12 9 -6 -4 -8 -3 -5 3 4 6 18 8 32 5 14 -2 25 0
25 7 0 5 8 8 18 5 13 -5 14 -4 3 4 -11 8 -11 10 0 15 9 3 9 6 2 6 -6 1 -19 -6
-28 -15 -9 -9 -18 -14 -21 -12 -8 9 36 41 58 42 13 0 23 6 24 11 1 20 23 63
34 70 9 6 9 2 0 -15 -6 -12 -9 -24 -7 -27 3 -2 8 5 12 16 3 12 11 19 16 16 5
-3 6 1 3 9 -3 9 -11 16 -17 16 -6 0 -7 3 -4 6 4 4 14 1 23 -7 16 -13 16 -12 4
11 -12 22 -12 24 2 12 13 -10 16 -9 21 10 4 13 1 26 -6 30 -7 4 -7 8 -1 8 5 0
16 -6 23 -12 8 -8 7 0 -4 21 -9 18 -12 30 -6 27 6 -4 11 -2 11 4 0 6 5 8 12 4
7 -5 8 -3 3 6 -4 7 -2 16 6 22 11 8 10 9 -3 4 -10 -3 -18 -1 -18 5 0 6 -5 7
-12 3 -7 -4 -8 -3 -4 5 4 6 2 19 -6 28 -9 12 -9 15 0 9 6 -4 12 -3 12 1 0 5
-6 15 -12 22 -7 8 -8 11 -2 8 7 -4 11 5 12 22 0 22 -5 31 -21 35 -19 5 -20 8
-7 16 13 9 13 11 0 19 -8 5 -18 7 -22 5 -4 -3 -8 -1 -8 4 0 6 7 13 16 16 8 3
13 2 10 -3 -3 -5 1 -12 10 -15 9 -4 14 -13 10 -21 -3 -8 -1 -15 4 -15 5 0 9
11 8 24 -1 14 -5 23 -9 20 -4 -2 -9 3 -13 11 -3 8 -12 15 -20 15 -7 0 -16 6
-18 13 -8 19 2 38 15 30 7 -3 8 -2 4 2 -7 8 -28 15 -54 17 -7 1 -10 5 -7 10 3
5 10 6 15 2 9 -5 4 6 -18 45 -2 2 -10 -2 -20 -10 -15 -12 -16 -12 -10 3 5 14
2 16 -17 8 -13 -5 -29 -4 -37 1 -8 5 -9 9 -3 9 6 0 11 7 11 15 0 11 -4 12 -11
5 -17 -17 -29 -11 -15 7 10 11 10 14 2 9 -7 -4 -13 -2 -13 3 0 6 5 11 12 11 6
0 8 3 5 6 -4 4 -12 2 -19 -4 -10 -7 -18 -3 -33 16 -18 26 -18 26 0 12 17 -14
18 -13 12 3 -4 11 -3 16 4 12 6 -4 8 -14 5 -22 -3 -8 -2 -11 3 -8 6 3 9 14 8
24 -1 15 -8 18 -32 16 -28 -3 -28 -3 -7 7 12 6 22 14 22 19 0 4 -10 4 -22 1
-22 -5 -22 -5 -5 12 21 21 21 23 2 23 -8 0 -11 -5 -8 -10 4 -6 1 -7 -7 -2 -10
6 -9 11 6 23 18 14 18 14 -2 8 -14 -4 -27 0 -39 14 -10 11 -22 17 -26 14 -5
-3 -9 -3 -9 0 0 3 12 12 28 21 15 8 20 15 12 14 -29 -3 -41 1 -35 11 3 6 1 10
-4 10 -6 0 -11 -5 -11 -12 0 -6 -3 -8 -6 -5 -4 4 -1 14 7 23 13 16 11 17 -13
10 -23 -5 -28 -3 -28 11 0 15 2 16 10 3 6 -9 10 -10 10 -3 0 17 -20 27 -60 29
-19 1 -28 0 -20 -2 9 -3 22 -15 29 -27 13 -19 12 -21 -1 -10 -8 7 -19 9 -23 5
-5 -4 -5 -2 -2 4 4 7 -2 14 -13 17 -21 5 -37 -8 -20 -16 6 -3 5 -4 -2 -2 -7 1
-12 8 -10 14 1 6 -5 14 -13 17 -8 3 -12 11 -8 17 4 6 1 7 -6 2 -9 -5 -10 -10
-2 -18 14 -14 14 -27 0 -27 -5 0 -8 4 -5 9 3 5 -1 11 -9 15 -8 3 -17 0 -21 -6
-5 -7 -2 -8 7 -3 12 8 12 6 0 -8 -15 -18 -26 -23 -16 -7 3 6 2 10 -4 10 -5 0
-13 -9 -16 -21 -6 -19 -8 -19 -20 -3 -15 21 -52 26 -52 8 0 -10 5 -10 20 -2
13 6 17 6 13 0 -3 -6 0 -13 6 -16 7 -3 2 -3 -11 0 -18 5 -22 3 -15 -7 6 -11 4
-11 -10 0 -13 11 -17 26 -14 58 2 24 0 43 -3 43 -5 0 -8 30 -13 118 0 12 -4
22 -8 22 -4 0 -7 10 -7 23 1 12 -3 40 -8 62 -5 22 -9 48 -7 58 1 9 -2 17 -6
17 -5 0 -9 8 -9 18 1 17 -8 75 -12 80 -2 2 -1 0 -18 62 l-12 45 -55 -2 c-35
-2 -53 1 -49 7 11 17 -7 11 -21 -7 -7 -10 -14 -13 -14 -8 0 10 -115 13 -125 3
-3 -3 -17 -3 -32 0 l-26 5 24 14 c24 13 24 13 -6 6 -27 -6 -29 -5 -16 10 7 9
18 14 24 10 6 -4 7 -1 2 6 -5 9 -10 10 -18 2 -18 -18 -31 -13 -16 6 10 12 10
14 1 9 -9 -5 -11 2 -7 31 3 27 2 32 -4 18 -5 -11 -7 -23 -5 -26 2 -3 -3 -6
-11 -6 -9 0 -11 4 -6 11 11 13 2 66 -11 66 -5 0 -6 -4 -3 -10 10 -16 -1 -11
-16 7 -12 14 -12 15 0 9 10 -7 12 -3 7 15 -6 20 -5 21 4 7 6 -10 15 -18 20
-18 6 0 0 11 -12 25 -12 14 -27 25 -34 25 -6 0 -18 8 -25 18 -11 14 -11 15 1
5 8 -7 21 -13 29 -13 10 0 6 7 -12 18 -15 10 -24 22 -21 25 4 4 14 1 23 -6 8
-6 5 3 -8 21 -12 17 -25 32 -28 32 -3 0 0 -6 6 -14 9 -11 9 -16 0 -22 -7 -4
-9 -3 -5 4 3 5 0 12 -6 15 -10 3 -9 8 2 22 12 15 12 17 1 10 -11 -6 -13 -4 -8
8 4 12 1 17 -11 17 -15 0 -15 2 -2 10 13 8 12 10 -4 10 -19 0 -19 0 0 21 14
15 15 20 4 17 -10 -2 -15 4 -14 18 1 11 -5 21 -12 21 -10 0 -11 -4 -3 -14 6
-7 8 -13 4 -13 -4 0 -2 -7 5 -15 9 -10 9 -15 1 -15 -6 0 -12 5 -12 10 -1 6 -3
13 -4 18 -2 4 -6 18 -10 30 -6 18 -10 20 -17 10 -5 -8 -6 -1 -3 19 3 21 0 37
-10 47 -18 18 -20 40 -2 30 6 -4 8 -3 4 1 -10 12 -38 15 -32 4 4 -5 -1 -6 -9
-3 -9 3 -16 10 -16 16 0 5 5 6 10 3 6 -3 10 -1 10 4 0 6 -4 12 -10 12 -5 1
-14 2 -19 3 -5 0 -13 5 -18 10 -4 5 -3 6 4 3 22 -13 19 18 -4 36 -30 24 -50
59 -28 51 8 -3 12 -11 8 -17 -4 -6 -1 -7 7 -2 9 5 11 4 6 -3 -5 -8 -1 -10 10
-5 11 4 13 8 6 11 -7 2 -10 8 -6 13 3 5 0 8 -8 7 -8 -2 -12 4 -10 17 3 16 1
18 -9 8 -7 -7 -18 -13 -24 -13 -5 0 -3 5 5 10 8 5 10 10 3 10 -12 0 -12 17 1
38 4 7 4 12 -1 11 -20 -4 -24 2 -12 19 7 9 9 14 5 10 -5 -4 -16 -2 -25 5 -14
11 -14 10 -2 -5 12 -16 11 -18 -2 -18 -11 0 -14 7 -11 28 4 26 3 26 -11 8 -17
-23 -20 -14 -4 15 5 11 15 16 21 13 7 -4 8 -3 4 5 -4 6 -11 9 -16 6 -15 -9
-41 7 -36 22 3 8 1 23 -4 33 -7 13 -6 20 3 23 7 3 6 6 -5 6 -9 1 -18 -5 -21
-11 -2 -7 -4 1 -3 19 0 17 5 29 10 26 5 -4 6 -1 2 6 -5 7 -14 10 -21 7 -8 -3
-12 2 -10 12 2 9 4 21 4 25 1 5 5 6 9 3 5 -3 9 1 9 8 0 7 -6 13 -13 13 -7 0
-11 -4 -8 -8 8 -13 -17 -22 -29 -10 -9 9 -7 10 8 5 11 -4 17 -4 13 1 -4 4 -3
14 3 22 13 15 -2 18 -17 3 -6 -6 -10 2 -11 22 0 21 2 26 8 17 7 -11 9 -12 9
-1 0 8 -9 16 -20 19 -11 3 -20 10 -20 15 0 5 6 6 13 2 8 -5 8 -2 -2 9 -9 11
-10 17 -2 17 6 0 11 5 11 11 0 8 -5 8 -15 -1 -8 -7 -13 -16 -10 -20 3 -5 0
-12 -6 -16 -8 -4 -9 -3 -5 4 4 7 -3 22 -16 35 -21 21 -22 25 -8 38 9 8 14 13
12 12 -3 -1 -11 5 -19 13 -8 8 -19 11 -25 8 -6 -4 -8 2 -3 17 7 24 7 24 -10 4
-9 -11 -13 -14 -9 -6 5 10 3 13 -9 8 -11 -4 -18 1 -23 16 -5 12 -7 25 -6 29 1
4 -6 4 -15 1 -10 -4 -14 -2 -10 4 4 5 0 19 -9 29 -14 18 -15 18 -5 -3 8 -16 7
-22 -5 -27 -8 -3 -12 -11 -8 -17 5 -8 3 -9 -5 -4 -9 5 -10 10 -2 18 17 17 13
27 -9 27 -11 0 -20 4 -20 10 0 5 -7 6 -17 3 -12 -5 -14 -3 -8 8 4 8 5 11 0 7
-4 -4 -15 -3 -22 4 -11 9 -16 9 -23 -2 -5 -8 -6 -18 -3 -24 3 -5 1 -6 -6 -2
-6 4 -8 12 -5 18 4 6 -1 8 -14 4 -12 -4 -26 -1 -35 9 -17 16 -32 21 -23 7 3
-5 -1 -9 -9 -9 -8 0 -12 3 -10 7 2 3 -1 12 -7 20 -8 12 -9 12 -4 -2 4 -15 -1
-18 -36 -18 l-41 0 19 22 19 22 -27 -20 c-25 -17 -41 -43 -19 -29 5 3 13 0 17
-6 4 -7 3 -9 -4 -5 -5 3 -13 0 -15 -6 -4 -10 -6 -10 -6 0 -1 7 -6 10 -12 6 -8
-4 -9 1 -5 17 l6 24 -11 -22 c-7 -13 -16 -23 -21 -23 -5 0 -7 4 -3 9 3 5 1 12
-4 15 -6 4 -8 -8 -6 -26 2 -18 1 -27 -2 -20 -6 15 -33 16 -33 1 0 -5 5 -7 12
-3 7 4 8 3 4 -4 -10 -17 -35 -3 -30 16 4 13 3 13 -6 -2 -10 -14 -10 -20 0 -26
7 -4 9 -13 5 -19 -5 -9 -10 -9 -20 -1 -10 9 -13 5 -11 -18 1 -23 -2 -28 -13
-24 -9 3 -12 1 -7 -6 3 -6 2 -13 -3 -16 -5 -4 -13 -1 -17 5 -5 8 -3 9 6 4 9
-5 11 -4 6 4 -12 19 -24 4 -18 -24 2 -14 0 -25 -7 -25 -5 0 -8 8 -5 18 5 14 4
14 -4 2 -7 -9 -7 -19 -2 -26 12 -14 2 -24 -16 -17 -8 3 -11 10 -7 16 3 6 1 7
-6 3 -9 -6 -9 -11 -1 -21 8 -10 7 -14 -2 -18 -11 -4 -10 -6 0 -6 7 -1 10 -5 7
-11 -3 -5 0 -8 7 -7 7 2 10 2 5 0 -4 -3 -5 -8 -2 -13 3 -4 -4 -6 -15 -3 -12 3
-20 0 -20 -6 0 -7 5 -9 10 -6 17 10 11 -6 -8 -23 -10 -10 -13 -14 -6 -9 7 4
14 1 18 -8 3 -9 11 -13 17 -9 8 4 9 3 5 -5 -5 -8 -12 -9 -19 -2 -8 6 -19 4
-32 -6 -19 -15 -19 -15 4 -8 16 5 21 4 17 -4 -4 -6 -18 -11 -31 -11 -19 0 -23
-4 -18 -17 6 -15 5 -16 -9 -3 -9 8 -12 17 -8 20 4 3 12 16 19 30 11 24 11 24
-3 6 -16 -20 -51 -33 -40 -15 3 5 10 7 15 4 5 -4 9 -1 9 4 0 14 -23 14 -37 0
-7 -7 -10 -5 -10 8 0 43 -3 49 -13 33 -7 -11 -10 -11 -10 -2 0 7 -5 10 -12 6
-7 -4 -8 -3 -4 4 4 7 2 12 -5 12 -7 0 -9 3 -6 6 4 4 12 2 19 -3 8 -7 21 -7 33
-2 19 9 19 9 -2 5 -12 -2 -24 2 -27 10 -3 8 0 14 6 14 6 0 8 3 5 6 -4 4 -13 1
-21 -5 -12 -10 -18 -7 -30 18 -11 21 -22 29 -36 26 -23 -4 -25 1 -7 20 12 11
18 6 40 -28 27 -41 37 -44 15 -4 -14 27 -38 51 -52 53 -25 3 -56 17 -56 26 0
5 5 6 10 3 6 -3 10 -1 10 4 0 6 -5 11 -11 11 -5 0 -8 4 -5 8 2 4 1 14 -3 21
-6 10 -10 9 -14 -4 -4 -9 -3 -13 3 -10 6 4 7 -1 3 -11 -4 -11 -8 -13 -11 -6
-2 7 -7 10 -11 8 -4 -3 -7 7 -8 22 -2 24 -1 24 7 7 7 -15 9 -16 9 -4 1 9 -5
21 -11 27 -14 11 -18 12 -44 12 -9 0 -12 5 -8 13 5 7 1 6 -10 -2 -16 -13 -17
-13 -14 4 2 14 -3 20 -17 21 -11 1 -36 9 -55 18 l-35 17 25 -20 c14 -11 21
-23 17 -27 -4 -4 -7 -3 -7 3 0 17 -31 25 -47 11 -11 -9 -13 -8 -11 3 2 8 -2
13 -9 12 -7 -2 -10 3 -7 11 4 11 0 13 -16 9 -12 -3 -24 -12 -27 -20 -4 -11 -8
-10 -18 4 -7 10 -11 21 -9 25 3 5 3 8 0 8 -3 0 -7 -3 -7 -7z m210 -80 c2 -1
-5 -1 -16 0 -11 0 -20 7 -20 14 0 10 4 10 16 1 9 -7 18 -13 20 -15z m874 14
c3 -8 2 -20 -3 -26 -5 -9 -7 -4 -7 13 0 29 2 32 10 13z m-86 -3 c-3 -3 -12 -4
-19 -1 -8 3 -5 6 6 6 11 1 17 -2 13 -5z m-715 -42 c-2 -7 -8 -9 -11 -4 -3 5
-13 12 -21 15 -8 3 -3 5 11 4 18 -1 25 -6 21 -15z m-501 -29 c11 -15 11 -16 0
-6 -7 6 -21 9 -30 6 -14 -4 -14 -3 -1 6 8 6 16 11 16 11 1 0 8 -8 15 -17z
m1518 -57 c10 -12 8 -13 -8 -9 -12 3 -18 9 -15 14 7 12 10 11 23 -5z m-699
-231 c0 -2 -6 -5 -13 -8 -8 -3 -14 1 -14 8 0 7 6 11 14 8 7 -3 13 -6 13 -8z
m-929 -8 c-6 -8 -7 -18 -3 -22 4 -5 1 -5 -6 -1 -10 6 -10 11 -1 22 6 8 14 14
16 14 3 0 0 -6 -6 -13z m-7 -97 c-22 -9 -29 -6 -20 9 4 6 14 7 23 4 15 -6 14
-7 -3 -13z m1861 -130 c3 -5 1 -10 -4 -10 -6 0 -11 5 -11 10 0 6 2 10 4 10 3
0 8 -4 11 -10z m-1821 -18 c2 -4 -4 -8 -14 -8 -10 0 -16 4 -14 8 3 4 9 8 14 8
5 0 11 -4 14 -8z m31 -191 c3 -5 2 -12 -3 -15 -5 -3 -9 1 -9 9 0 17 3 19 12 6z
m1935 -61 c0 -5 -6 -12 -12 -16 -7 -4 -10 -4 -6 1 4 4 3 14 -4 22 -8 11 -7 12
6 7 9 -3 16 -10 16 -14z m-1913 -76 c-3 -3 -12 -4 -19 -1 -8 3 -5 6 6 6 11 1
17 -2 13 -5z m1967 -82 c3 -5 -1 -9 -9 -9 -8 0 -12 4 -9 9 3 4 7 8 9 8 2 0 6
-4 9 -8z m-2250 -93 c-3 -5 -10 -7 -15 -3 -5 3 -7 10 -3 15 3 5 10 7 15 3 5
-3 7 -10 3 -15z m2340 -64 c-4 -8 -11 -12 -16 -9 -6 4 -5 10 3 15 19 12 19 11
13 -6z m-2577 -521 c-3 -3 -12 -4 -19 -1 -8 3 -5 6 6 6 11 1 17 -2 13 -5z
m-39 -105 c-13 -8 -4 -13 17 -9 6 1 4 -4 -2 -11 -15 -15 -22 -10 -28 19 -3 15
0 19 12 15 12 -5 12 -7 1 -14z m-28 -81 c0 -6 -3 -8 -6 -5 -4 3 -16 2 -28 -4
-20 -10 -20 -10 -2 5 24 19 36 20 36 4z m-20 -32 c0 -3 -4 -8 -10 -11 -5 -3
-10 -1 -10 4 0 6 5 11 10 11 6 0 10 -2 10 -4z m3440 -12 c0 -8 -19 -13 -24 -6
-3 5 1 9 9 9 8 0 15 -2 15 -3z m158 -299 c-3 -3 -9 2 -12 12 -6 14 -5 15 5 6
7 -7 10 -15 7 -18z m136 -50 c3 -8 1 -15 -4 -15 -6 0 -10 7 -10 15 0 8 2 15 4
15 2 0 6 -7 10 -15z m-4060 -11 c3 -8 2 -12 -4 -9 -6 3 -10 10 -10 16 0 14 7
11 14 -7z m4176 -312 c0 -5 -7 -9 -15 -9 -8 0 -15 4 -15 9 0 4 7 8 15 8 8 0
15 -4 15 -8z m-4170 -142 c0 -5 -2 -10 -4 -10 -3 0 -8 5 -11 10 -3 6 -1 10 4
10 6 0 11 -4 11 -10z m4062 -53 c-7 -8 -10 -17 -7 -21 3 -3 0 -2 -6 3 -8 7 -8
13 2 24 17 18 26 13 11 -6z m-4002 -142 c0 -12 -19 -12 -23 0 -4 9 -1 12 9 8
7 -3 14 -7 14 -8z m3840 1 c0 -3 -4 -8 -10 -11 -5 -3 -10 -1 -10 4 0 6 5 11
10 11 6 0 10 -2 10 -4z m-326 -175 c3 -5 -1 -14 -8 -20 -10 -9 -16 -9 -21 -1
-4 6 -1 9 7 8 7 -2 12 3 11 10 -3 14 3 16 11 3z m189 -66 c-3 -9 -8 -14 -10
-11 -3 3 -2 9 2 15 9 16 15 13 8 -4z m-103 -39 c0 -8 -13 -24 -30 -36 -16 -12
-30 -17 -30 -12 0 5 11 14 25 20 14 6 25 15 24 19 -2 13 1 23 6 23 3 0 5 -6 5
-14z m-110 -100 c0 -2 -7 -7 -16 -10 -8 -3 -12 -2 -9 4 6 10 25 14 25 6z m884
-24 c3 -5 -1 -9 -9 -9 -8 0 -12 4 -9 9 3 4 7 8 9 8 2 0 6 -4 9 -8z m-4157
-171 c0 -42 3 -47 14 -31 8 12 9 11 7 -5 -2 -11 2 -19 9 -18 7 2 10 -3 7 -11
-4 -10 -12 -7 -33 13 -15 15 -24 31 -19 37 4 6 3 15 -3 21 -6 6 -5 10 4 10 8
0 14 -7 14 -16z m4359 -41 c5 1 10 -4 12 -12 3 -11 2 -11 -6 0 -5 8 -12 13
-16 13 -20 -3 -26 0 -20 10 5 8 9 8 14 -1 4 -6 11 -11 16 -10z m65 -33 c-10
-9 -11 -8 -5 6 3 10 9 15 12 12 3 -3 0 -11 -7 -18z m-4361 -37 c0 -5 -2 -10
-4 -10 -3 0 -8 5 -11 10 -3 6 -1 10 4 10 6 0 11 -4 11 -10z m55 -120 c3 -5 1
-10 -4 -10 -6 0 -11 5 -11 10 0 6 2 10 4 10 3 0 8 -4 11 -10z m-28 -16 c-3 -3
-12 -4 -19 -1 -8 3 -5 6 6 6 11 1 17 -2 13 -5z m4783 -63 c7 -14 7 -22 -2 -27
-6 -4 -8 -3 -5 2 3 6 2 16 -4 24 -5 8 -9 10 -9 4 0 -6 -7 -11 -16 -11 -14 0
-14 2 2 14 23 16 21 17 34 -6z m-4964 -59 c-17 -16 -18 -16 -5 5 7 12 15 20
18 17 3 -2 -3 -12 -13 -22z m25 -15 c-10 -9 -11 -8 -5 6 3 10 9 15 12 12 3 -3
0 -11 -7 -18z m5029 -29 c0 -6 -6 -5 -15 2 -8 7 -15 14 -15 16 0 2 7 1 15 -2
8 -4 15 -11 15 -16z m-5080 -2 c0 -2 -8 -10 -17 -17 -16 -13 -17 -12 -4 4 13
16 21 21 21 13z m5250 -11 c7 -8 16 -12 21 -9 10 6 12 -9 2 -19 -3 -4 -12 2
-20 13 -15 22 -43 27 -43 8 0 -6 -3 -9 -6 -5 -9 8 5 27 20 27 8 0 19 -7 26
-15z m-15 -14 c3 -5 2 -12 -3 -15 -5 -3 -9 1 -9 9 0 17 3 19 12 6z m114 -65
c9 -11 9 -16 0 -22 -7 -4 -9 -3 -5 4 3 6 2 13 -4 17 -5 3 -10 1 -10 -6 0 -7
-3 -10 -6 -6 -5 5 3 27 10 27 2 0 9 -6 15 -14z m-5509 -60 c0 -3 -4 -8 -10
-11 -5 -3 -10 -1 -10 4 0 6 5 11 10 11 6 0 10 -2 10 -4z m-60 -50 c0 -2 -7 -7
-16 -10 -8 -3 -12 -2 -9 4 6 10 25 14 25 6z m5616 -32 c1 -9 0 -13 -4 -10 -3
4 -7 14 -8 22 -1 9 0 13 4 10 3 -4 7 -14 8 -22z m29 -44 c-3 -5 -11 -10 -16
-10 -6 0 -7 5 -4 10 3 6 11 10 16 10 6 0 7 -4 4 -10z m12 -25 c0 -8 -4 -15 -9
-15 -10 0 -11 14 -1 23 9 10 10 9 10 -8z m-2 -76 c-4 -5 -2 -9 3 -9 5 0 9 -6
9 -14 0 -8 -8 -11 -20 -8 -10 3 -14 8 -9 11 5 3 8 14 6 24 -1 9 2 15 7 11 5
-3 7 -10 4 -15z m-18 -91 c-3 -8 -6 -5 -6 6 -1 11 2 17 5 13 3 -3 4 -12 1 -19z
m-5747 -23 c7 -9 8 -15 2 -15 -5 0 -12 7 -16 15 -3 8 -4 15 -2 15 2 0 9 -7 16
-15z m5769 -108 c-2 -1 -13 -9 -24 -17 -19 -14 -19 -14 -6 3 7 9 18 17 24 17
6 0 8 -1 6 -3z m-75 -250 c-3 -8 -12 -14 -21 -14 -13 0 -13 2 3 14 10 7 19 13
21 13 1 0 0 -6 -3 -13z m-51 -143 c-4 -12 -8 -13 -14 -3 -9 15 -2 32 11 24 5
-3 6 -13 3 -21z m-5503 -238 c0 -2 -8 -10 -17 -17 -16 -13 -17 -12 -4 4 13 16
21 21 21 13z m2 -38 c-16 -16 -15 -31 1 -22 7 5 6 0 -3 -11 -14 -17 -13 -18 2
-12 10 3 22 -1 30 -11 7 -9 8 -13 2 -9 -7 4 -15 0 -18 -9 -5 -12 -1 -14 16 -9
18 6 19 5 7 -8 -8 -8 -17 -13 -21 -11 -4 2 -9 0 -12 -5 -7 -11 13 -9 33 3 11
7 13 5 7 -10 -13 -33 -12 -39 7 -38 9 1 17 -2 17 -8 0 -5 6 -6 13 -2 8 5 8 2
-2 -9 -16 -20 -2 -23 19 -4 12 10 12 9 1 -5 -7 -10 -9 -18 -4 -18 16 0 35 -50
20 -51 -9 0 -9 -2 1 -6 6 -2 9 -9 6 -15 -4 -5 6 -2 22 8 l29 18 -18 -21 c-17
-20 -17 -20 8 -18 14 2 23 -1 19 -6 -3 -5 -9 -7 -14 -4 -5 3 -12 1 -15 -5 -4
-6 -3 -9 2 -8 4 2 8 -1 8 -7 0 -5 -4 -9 -8 -7 -5 1 -6 -2 -2 -8 8 -13 46 11
38 25 -4 5 -2 6 3 2 5 -5 9 -12 9 -15 0 -4 4 -14 10 -22 7 -12 6 -13 -6 -3
-12 10 -15 9 -15 -6 0 -12 6 -17 18 -13 10 2 18 9 18 16 0 6 5 3 11 -7 6 -9
15 -14 21 -11 7 4 8 2 4 -4 -4 -7 -2 -12 3 -12 6 0 11 -5 11 -11 0 -8 -5 -8
-15 1 -10 9 -15 9 -15 1 0 -10 13 -15 33 -12 7 1 11 -14 8 -36 -1 -6 2 -14 7
-17 5 -3 8 9 6 27 -1 17 0 26 3 19 2 -6 10 -9 16 -5 7 4 6 -1 -2 -10 -9 -12
-10 -17 -2 -17 7 0 10 -4 7 -9 -3 -4 1 -17 9 -27 11 -16 16 -17 27 -6 11 11
10 12 -6 6 -13 -5 -17 -4 -13 3 4 6 1 14 -5 16 -7 3 -8 6 -2 6 5 1 18 -5 28
-12 17 -12 17 -15 2 -29 -19 -20 -21 -29 -3 -26 6 2 11 -2 10 -9 -3 -12 15
-12 35 1 7 4 16 5 19 2 4 -3 1 -6 -5 -6 -7 0 -12 -7 -12 -16 0 -8 -4 -12 -10
-9 -6 3 -7 -1 -4 -9 3 -9 10 -16 16 -16 5 0 6 -5 2 -12 -4 -7 -3 -8 5 -4 6 4
8 12 5 18 -5 7 -2 8 5 4 7 -5 10 -15 7 -23 -4 -11 -2 -13 9 -10 8 4 17 2 20
-3 3 -4 -36 -43 -87 -86 -327 -272 -498 -508 -557 -769 -5 -22 -9 -32 -10 -23
-1 14 -18 10 -108 -29 -176 -74 -221 -91 -227 -85 -3 3 -6 17 -6 31 0 14 -11
70 -25 124 -78 305 -230 428 -573 463 -37 3 -68 7 -69 8 -1 1 55 30 125 66
484 246 772 463 929 697 33 50 71 118 84 152 17 42 29 61 41 61 10 0 18 5 18
12 0 6 3 8 7 5 4 -4 1 -13 -5 -19z m5335 -92 c0 -8 -6 -12 -14 -9 -7 3 -10 9
-7 14 8 14 21 11 21 -5z m-50 -21 c0 -8 -4 -12 -9 -9 -5 3 -6 10 -3 15 9 13
12 11 12 -6z m-5222 -24 c-3 -6 -11 -11 -17 -11 -6 0 -6 6 2 15 14 17 26 13
15 -4z m3945 -316 c0 -3 -14 -14 -31 -24 -18 -11 -26 -22 -20 -25 6 -4 11 -2
11 5 0 7 3 9 7 6 3 -4 11 -3 17 2 7 6 16 3 25 -6 11 -12 11 -14 0 -12 -8 1
-23 -1 -34 -5 -81 -31 -95 -35 -100 -26 -3 5 -1 11 5 15 6 4 8 11 4 16 -3 5
-2 8 3 7 16 -4 53 14 48 23 -3 5 1 6 9 3 9 -3 16 -1 16 6 0 6 4 9 9 5 5 -3 12
-1 16 5 7 11 15 13 15 5z m-3615 -49 c0 -18 -3 -22 -13 -14 -9 8 -9 14 -1 24
15 18 14 18 14 -10z m39 -45 c3 -5 -1 -11 -9 -14 -9 -4 -12 -1 -8 9 6 16 10
17 17 5z m3441 -10 c-2 -5 -14 -11 -25 -14 -11 -3 -18 -1 -14 4 3 5 12 9 20 9
9 0 12 5 8 12 -4 7 -3 8 5 4 6 -4 9 -11 6 -15z m1081 -142 c-6 9 41 10 106 2
11 -1 -192 -285 -309 -432 -57 -71 -153 -180 -214 -241 -62 -62 -111 -116
-111 -120 2 -8 -89 -86 -168 -145 -207 -154 -321 -205 -442 -199 -145 8 -231
90 -229 222 1 108 33 156 250 374 139 140 223 241 268 325 15 27 27 39 39 37
14 -3 15 -1 7 10 -9 10 -6 13 12 13 13 0 21 -3 19 -6 -2 -4 3 -12 11 -19 12
-10 13 -16 4 -26 -8 -10 -8 -14 -1 -14 6 0 16 8 22 18 8 13 10 13 9 2 -2 -27
1 -40 10 -40 5 0 7 10 5 23 -2 12 -1 15 2 7 4 -8 12 -21 18 -29 8 -11 8 -13
-1 -7 -7 4 -13 2 -13 -3 0 -14 13 -14 28 1 9 9 15 9 24 0 8 -8 15 -9 25 -1 7
7 13 8 13 4 0 -4 8 -1 18 6 16 13 16 13 2 -5 -13 -18 -13 -19 1 -14 10 4 16 2
15 -5 0 -7 4 -13 9 -14 6 -1 9 4 7 12 -1 7 2 16 8 20 6 4 10 3 9 -2 -3 -20 2
-34 11 -28 6 4 8 10 5 15 -9 14 15 23 29 10 11 -8 15 -8 19 2 4 9 6 9 6 1 1
-16 -22 -29 -27 -15 -7 21 -17 13 -19 -15 -1 -17 2 -21 7 -13 4 7 15 10 25 7
9 -4 14 -3 11 2 -3 5 1 11 8 14 8 3 17 1 20 -6 3 -7 5 -6 5 3 1 9 -5 22 -11
30 -7 8 -3 6 9 -4 21 -17 97 -31 88 -15 -3 4 -16 6 -30 5 -13 -2 -23 2 -22 8
1 6 -4 10 -11 8 -8 -1 -11 2 -7 8 5 8 11 8 20 0 20 -17 63 -22 71 -9 5 8 3 9
-7 4 -8 -5 -10 -4 -6 0 4 5 14 10 23 11 11 2 13 -3 8 -19 -6 -20 -6 -20 10 -4
10 9 21 15 26 12 4 -3 7 3 6 12 0 9 5 18 12 20 7 3 10 -1 6 -10 -3 -8 0 -18 7
-23 8 -4 10 -3 5 4 -12 20 4 34 22 20 15 -12 16 -11 3 5 -7 9 -10 17 -6 17 4
0 1 8 -6 18 -11 14 -11 15 1 5 20 -18 35 -16 20 2 -17 21 -5 19 16 -2 16 -17
17 -16 12 9 -3 15 -2 25 2 23 10 -6 32 20 23 28 -6 6 11 11 30 8 6 -1 8 7 6
27 0 4 15 14 33 22 34 15 38 19 38 41 0 5 4 8 10 4 5 -3 7 -12 3 -20 -3 -8 -1
-15 5 -15 6 0 9 11 8 25 -3 21 -1 23 17 14 14 -8 17 -8 13 0z m-4221 -68 c-3
-6 3 -10 12 -10 44 1 72 -14 52 -27 -8 -5 -10 -3 -4 6 6 9 4 11 -4 5 -10 -5
-10 -10 -1 -19 13 -13 33 11 25 32 -3 7 0 10 5 7 6 -3 10 -12 10 -18 0 -7 9
-23 20 -37 11 -14 19 -18 18 -10 -2 8 -7 18 -11 21 -5 3 -1 9 8 12 9 4 13 3
10 -3 -3 -6 -1 -10 5 -10 7 0 9 -7 5 -17 -5 -15 -4 -16 6 -5 18 17 26 15 26
-5 1 -55 -179 -255 -327 -363 -47 -34 -139 -89 -205 -121 -139 -68 -140 -67
-101 48 30 90 88 188 161 276 59 72 189 187 252 223 44 26 46 27 38 15z m185
-37 c0 -8 -19 -13 -24 -6 -3 5 1 9 9 9 8 0 15 -2 15 -3z m259 -214 c-14 -9 -6
-51 9 -45 7 2 10 0 7 -5 -4 -6 -13 -9 -20 -8 -8 2 -14 -1 -13 -7 0 -5 4 -9 8
-8 13 4 5 -28 -10 -37 -9 -6 -7 -10 9 -15 11 -3 21 -11 21 -16 0 -6 -9 -7 -21
-4 -15 5 -19 4 -15 -4 4 -6 14 -11 22 -11 15 0 17 -7 16 -53 0 -18 3 -25 11
-20 7 4 6 0 -2 -10 -9 -11 -10 -17 -2 -17 6 0 11 -5 11 -11 0 -8 -4 -8 -14 0
-8 7 -13 28 -12 51 1 22 0 37 -3 34 -9 -9 -8 -93 1 -88 4 3 8 -2 8 -11 0 -10
5 -13 13 -9 6 4 9 3 4 -1 -4 -5 0 -16 8 -25 14 -15 14 -18 0 -30 -17 -14 -20
-30 -4 -30 5 0 7 5 4 10 -3 6 -1 10 4 10 17 0 13 -27 -4 -34 -8 -3 -15 -11
-15 -18 0 -9 3 -9 10 2 5 8 12 11 16 7 4 -3 2 -12 -4 -20 -8 -10 -6 -13 11
-14 17 -2 19 0 7 7 -8 5 -10 10 -5 10 6 0 16 -4 23 -9 11 -6 10 -10 -5 -15
-17 -7 -17 -8 0 -17 9 -6 15 -15 12 -20 -4 -5 -11 -6 -17 -3 -7 4 -8 2 -4 -5
6 -9 11 -9 22 0 8 6 17 9 20 6 7 -7 -163 -148 -281 -232 -292 -208 -569 -260
-692 -130 -54 57 -87 160 -81 255 l3 52 150 67 c280 124 505 258 667 395 42
35 79 62 82 59 3 -4 6 4 6 16 0 12 4 19 10 16 6 -3 10 -1 10 5 0 7 5 6 14 -2
8 -7 10 -15 5 -18z m18 -92 c-3 -8 -6 -5 -6 6 -1 11 2 17 5 13 3 -3 4 -12 1
-19z m2126 -98 c-24 -48 -54 -128 -66 -177 l-22 -90 -167 -124 c-198 -148
-296 -202 -363 -202 -34 0 -52 5 -68 22 -34 33 -29 126 10 212 34 75 47 86 71
68 9 -7 14 -10 10 -5 -4 5 -1 15 7 22 18 19 26 18 18 -3 -4 -11 -3 -14 5 -9
15 9 15 36 0 36 -6 0 -9 3 -6 6 4 3 15 1 27 -5 17 -9 19 -8 16 7 -2 10 1 25 7
33 8 11 9 11 5 -3 -3 -9 0 -24 8 -34 12 -17 13 -16 8 10 -4 21 -2 27 6 22 6
-4 9 -11 7 -15 -3 -4 1 -8 9 -8 10 0 11 5 4 19 -7 14 -6 20 6 24 8 3 12 11 8
17 -3 6 -1 7 6 3 6 -4 9 -11 7 -15 -3 -4 1 -8 9 -8 10 0 11 5 4 19 -7 14 -7
18 3 16 7 -2 12 3 10 10 -1 8 2 11 8 7 8 -5 8 -11 0 -20 -7 -8 -7 -15 -1 -19
14 -9 19 4 16 39 -2 17 -1 24 2 17 4 -10 8 -10 19 -1 8 6 12 14 10 18 -3 4 8
6 25 5 16 -1 26 2 23 7 -3 5 1 9 9 9 18 0 27 22 22 52 -4 23 -4 23 16 -2 11
-14 18 -20 15 -14 -3 7 5 19 19 28 26 17 33 36 14 36 -5 0 -8 -4 -4 -9 3 -6
-3 -15 -14 -21 -14 -7 -22 -7 -26 0 -4 6 -3 9 2 8 4 -2 18 7 31 20 24 24 47
30 37 10 -4 -7 1 -4 9 6 16 19 16 19 17 -5 l1 -24 7 25 c4 14 12 26 19 26 7 1
14 2 17 4 6 2 74 2 78 0 1 -1 10 -3 19 -5 11 -2 15 2 11 12 -5 12 -7 12 -14 1
-6 -9 -9 -9 -9 -1 0 6 5 15 10 18 6 4 7 11 4 17 -4 7 -2 8 5 4 6 -4 9 -11 6
-16 -3 -4 2 -13 9 -19 11 -9 16 -9 22 0 4 7 3 9 -3 6 -5 -3 -10 0 -10 7 0 8 8
11 19 8 14 -3 17 0 12 14 -4 14 -3 15 4 6 6 -9 -4 -40 -35 -102z m-59 82 c3
-5 -1 -9 -9 -9 -8 0 -12 4 -9 9 3 4 7 8 9 8 2 0 6 -4 9 -8z m-191 -67 c-3 -9
-8 -14 -10 -11 -3 3 -2 9 2 15 9 16 15 13 8 -4z m-50 -89 c-3 -4 -9 -2 -14 5
-13 22 -11 31 5 17 8 -7 12 -17 9 -22z m-30 -1 c4 -8 3 -16 -1 -19 -4 -3 -9 4
-9 15 -2 23 3 25 10 4z m-739 -141 c3 -8 2 -12 -4 -9 -6 3 -10 10 -10 16 0 14
7 11 14 -7z m-969 -62 c-3 -3 -11 0 -18 7 -9 10 -8 11 6 5 10 -3 15 -9 12 -12z
m1445 12 c0 -8 -19 -13 -24 -6 -3 5 1 9 9 9 8 0 15 -2 15 -3z m-940 -68 c0 -3
-4 -8 -10 -11 -5 -3 -10 -1 -10 4 0 6 5 11 10 11 6 0 10 -2 10 -4z m-27 -29
c-2 -4 -5 -7 -8 -7 -3 1 -12 -6 -21 -14 -8 -8 -21 -13 -29 -10 -17 7 -20 24
-5 24 6 0 10 -5 10 -12 0 -13 14 -2 16 13 3 16 4 17 22 15 9 -2 16 -6 15 -9z
m-2700 -534 c-93 -257 -207 -418 -513 -723 -91 -91 -185 -181 -210 -201 -25
-20 -58 -48 -75 -61 -141 -116 -413 -275 -543 -318 -61 -20 -126 -20 -147 1
-34 33 44 169 212 369 259 309 637 633 972 835 99 60 300 164 317 165 7 0 2
-26 -13 -67z"/>
<path d="M3619 5003 c-13 -16 -12 -17 4 -4 16 13 21 21 13 21 -2 0 -10 -8 -17
-17z"/>
<path d="M3713 4845 c0 -8 4 -15 9 -15 4 0 8 4 8 9 0 6 -4 12 -8 15 -5 3 -9
-1 -9 -9z"/>
<path d="M3850 4700 c0 -5 5 -10 11 -10 5 0 7 5 4 10 -3 6 -8 10 -11 10 -2 0
-4 -4 -4 -10z"/>
<path d="M4065 4450 c-4 -6 -11 -7 -17 -4 -7 4 -8 2 -4 -5 6 -9 11 -9 22 0 14
11 18 19 10 19 -3 0 -8 -5 -11 -10z"/>
<path d="M7550 4559 c0 -5 5 -7 10 -4 6 3 10 8 10 11 0 2 -4 4 -10 4 -5 0 -10
-5 -10 -11z"/>
<path d="M7520 4545 c-11 -13 -10 -14 4 -9 9 3 16 10 16 15 0 13 -6 11 -20 -6z"/>
<path d="M8483 4311 c-6 -3 -15 -16 -22 -29 -7 -12 -15 -21 -19 -18 -15 9 -39
-39 -31 -59 8 -18 8 -17 6 5 -1 18 2 24 13 22 8 -2 12 -1 9 3 -4 3 3 16 15 29
16 17 25 20 36 12 13 -9 13 -9 2 6 -14 18 -6 27 21 22 11 -1 16 0 13 4 -10 9
-32 11 -43 3z"/>
<path d="M7796 4185 c4 -8 11 -15 16 -15 6 0 5 6 -2 15 -7 8 -14 15 -16 15 -2
0 -1 -7 2 -15z"/>
<path d="M7908 4113 c6 -2 10 -8 8 -12 -3 -4 11 -7 29 -7 27 0 32 3 23 13 -8
10 -14 10 -23 3 -9 -8 -15 -8 -20 0 -3 5 -12 10 -18 9 -9 0 -8 -2 1 -6z"/>
<path d="M4364 4279 c-4 -7 -3 -9 4 -5 5 3 13 0 15 -6 4 -9 6 -10 6 -1 1 17
-16 25 -25 12z"/>
<path d="M4435 4240 c-3 -5 -1 -10 4 -10 6 0 11 5 11 10 0 6 -2 10 -4 10 -3 0
-8 -4 -11 -10z"/>
<path d="M4770 4020 c0 -5 5 -10 11 -10 5 0 7 5 4 10 -3 6 -8 10 -11 10 -2 0
-4 -4 -4 -10z"/>
<path d="M4799 3723 c-13 -17 -13 -17 5 -3 18 14 19 13 13 -2 -3 -10 -2 -18 3
-18 16 0 20 18 6 29 -10 9 -17 7 -27 -6z"/>
<path d="M6810 3888 c-10 -21 -10 -21 3 -6 8 10 18 14 22 10 5 -4 5 -1 1 6
-10 17 -14 15 -26 -10z"/>
<path d="M6570 3720 c-6 -11 -8 -20 -6 -20 3 0 10 9 16 20 6 11 8 20 6 20 -3
0 -10 -9 -16 -20z"/>
<path d="M6475 3650 c3 -5 8 -10 11 -10 2 0 4 5 4 10 0 6 -5 10 -11 10 -5 0
-7 -4 -4 -10z"/>
<path d="M4910 10326 c0 -8 4 -17 8 -20 4 -2 8 4 8 15 0 10 -4 19 -8 19 -4 0
-8 -6 -8 -14z"/>
<path d="M5820 10303 c0 -6 4 -14 9 -17 14 -9 42 5 35 16 -4 6 -10 5 -15 -3
-8 -12 -11 -11 -19 1 -6 9 -10 10 -10 3z"/>
<path d="M6050 10205 c0 -8 4 -15 8 -15 5 0 9 7 9 15 0 8 -4 15 -9 15 -4 0 -8
-7 -8 -15z"/>
<path d="M5506 10193 c-6 -14 -5 -15 5 -6 7 7 10 15 7 18 -3 3 -9 -2 -12 -12z"/>
<path d="M5181 10168 c-1 -21 15 -32 25 -17 4 7 3 9 -4 5 -6 -3 -13 2 -15 11
-4 16 -5 16 -6 1z"/>
<path d="M4495 10140 c-3 -5 -1 -10 4 -10 6 0 11 5 11 10 0 6 -2 10 -4 10 -3
0 -8 -4 -11 -10z"/>
<path d="M4476 10107 c3 -10 9 -15 12 -12 3 3 0 11 -7 18 -10 9 -11 8 -5 -6z"/>
<path d="M6140 10095 c13 -16 30 -11 30 8 0 7 -4 6 -10 -3 -6 -10 -10 -11 -10
-2 0 6 -5 12 -11 12 -8 0 -8 -5 1 -15z"/>
<path d="M4465 10040 c-3 -5 -2 -10 4 -10 5 0 13 5 16 10 3 6 2 10 -4 10 -5 0
-13 -4 -16 -10z"/>
<path d="M5324 9988 c0 -10 1 -18 3 -18 1 0 7 8 12 18 7 13 6 19 -2 19 -7 0
-13 -9 -13 -19z"/>
<path d="M6294 9802 c3 -5 1 -12 -6 -14 -8 -3 -9 -6 -1 -11 6 -4 13 0 17 8 3
8 0 17 -6 21 -6 4 -8 3 -4 -4z"/>
<path d="M4513 9485 c0 -8 4 -12 9 -9 5 3 6 10 3 15 -9 13 -12 11 -12 -6z"/>
<path d="M6511 9394 c0 -11 3 -14 6 -6 3 7 2 16 -1 19 -3 4 -6 -2 -5 -13z"/>
<path d="M4542 9290 c13 -20 28 -27 28 -12 0 4 -9 13 -20 20 -19 12 -20 11 -8
-8z"/>
<path d="M4547 9242 c6 -14 4 -15 -9 -4 -13 11 -18 11 -24 0 -4 -7 -4 -10 1
-6 4 4 13 1 19 -7 10 -13 13 -13 23 4 10 15 9 20 -2 25 -10 3 -12 0 -8 -12z"/>
<path d="M4400 9240 c-9 -6 -10 -10 -3 -10 6 0 15 5 18 10 8 12 4 12 -15 0z"/>
<path d="M4346 9214 c-11 -8 -16 -14 -10 -14 13 0 39 18 34 24 -3 2 -14 -2
-24 -10z"/>
<path d="M4220 9139 c-11 -8 -9 -9 10 -3 23 6 24 6 10 -12 -14 -18 -14 -18 2
-5 29 22 8 41 -22 20z"/>
<path d="M4094 8990 c0 -10 2 -17 5 -15 2 3 11 -1 19 -8 11 -9 11 -4 -2 16
-22 32 -22 32 -22 7z"/>
<path d="M4035 8780 c-3 -5 -1 -10 4 -10 6 0 11 5 11 10 0 6 -2 10 -4 10 -3 0
-8 -4 -11 -10z"/>
<path d="M7310 8360 c0 -5 5 -10 11 -10 5 0 7 5 4 10 -3 6 -8 10 -11 10 -2 0
-4 -4 -4 -10z"/>
<path d="M7190 8345 c0 -5 5 -17 10 -25 5 -8 10 -10 10 -5 0 6 -5 17 -10 25
-5 8 -10 11 -10 5z"/>
<path d="M3790 8260 c0 -5 5 -10 10 -10 6 0 10 5 10 10 0 6 -4 10 -10 10 -5 0
-10 -4 -10 -10z"/>
<path d="M3754 8239 c1 -7 12 -13 24 -14 17 -1 19 1 10 12 -8 10 -13 11 -18 2
-6 -8 -9 -8 -13 0 -4 8 -5 8 -3 0z"/>
<path d="M7490 8241 c0 -18 25 -30 40 -19 12 8 12 9 -2 4 -12 -3 -18 0 -18 9
0 8 -4 15 -10 15 -5 0 -10 -4 -10 -9z"/>
<path d="M3700 8159 c0 -5 5 -7 10 -4 6 3 10 8 10 11 0 2 -4 4 -10 4 -5 0 -10
-5 -10 -11z"/>
<path d="M3665 8109 c-4 -6 -5 -12 -2 -15 2 -3 7 2 10 11 7 17 1 20 -8 4z"/>
<path d="M7636 8023 c-6 -14 -5 -15 5 -6 7 7 10 15 7 18 -3 3 -9 -2 -12 -12z"/>
<path d="M7750 7916 c0 -2 7 -7 16 -10 8 -3 12 -2 9 4 -6 10 -25 14 -25 6z"/>
<path d="M7814 7779 c-4 -8 -3 -9 4 -5 16 10 15 -6 0 -24 -11 -12 -10 -12 7 0
11 8 21 15 23 16 1 1 -4 7 -12 13 -11 9 -16 9 -22 0z"/>
<path d="M3556 7731 c-4 -5 -2 -12 3 -15 5 -4 12 -2 15 3 4 5 2 12 -3 15 -5 4
-12 2 -15 -3z"/>
<path d="M7816 7722 c-2 -4 -1 -14 4 -22 8 -12 11 -13 22 -2 7 8 9 13 3 12
-22 -5 -29 1 -15 10 9 6 10 10 3 10 -6 0 -14 -4 -17 -8z"/>
<path d="M3574 7652 c3 -5 0 -13 -6 -15 -9 -4 -10 -6 -1 -6 17 -1 25 16 12 25
-7 4 -9 3 -5 -4z"/>
<path d="M7830 7619 c0 -5 5 -7 10 -4 6 3 10 8 10 11 0 2 -4 4 -10 4 -5 0 -10
-5 -10 -11z"/>
<path d="M7630 7355 c0 -8 2 -15 4 -15 2 0 6 7 10 15 3 8 1 15 -4 15 -6 0 -10
-7 -10 -15z"/>
<path d="M7340 7235 c-7 -9 -10 -18 -7 -21 3 -3 10 4 17 15 13 25 8 27 -10 6z"/>
<path d="M3708 7233 c6 -2 9 -10 6 -15 -4 -7 -2 -8 5 -4 13 9 5 26 -12 25 -9
0 -8 -2 1 -6z"/>
<path d="M3746 7182 c-3 -5 1 -9 9 -9 8 0 12 4 9 9 -3 4 -7 8 -9 8 -2 0 -6 -4
-9 -8z"/>
<path d="M7685 7160 c-3 -6 1 -7 9 -4 18 7 21 14 7 14 -6 0 -13 -4 -16 -10z"/>
<path d="M7732 7153 c7 -9 15 -10 29 -2 25 13 24 14 -10 14 -23 1 -28 -2 -19
-12z"/>
<path d="M7835 7138 c26 -16 44 -18 51 -7 3 5 2 9 -3 8 -4 -1 -10 -1 -13 1 -3
1 -16 3 -30 6 -23 3 -24 3 -5 -8z"/>
<path d="M7343 7073 c0 -9 4 -10 14 -2 7 6 13 12 13 14 0 1 -6 2 -13 2 -8 0
-14 -6 -14 -14z"/>
<path d="M7995 7060 c3 -5 8 -10 11 -10 2 0 4 5 4 10 0 6 -5 10 -11 10 -5 0
-7 -4 -4 -10z"/>
<path d="M7212 7015 c4 -4 3 -14 -4 -22 -8 -11 -7 -12 6 -7 19 7 21 20 4 30
-7 4 -10 4 -6 -1z"/>
<path d="M3850 6870 c-9 -6 -10 -10 -3 -10 6 0 15 5 18 10 8 12 4 12 -15 0z"/>
<path d="M3869 6801 c6 -10 9 -20 8 -22 -1 -2 0 -3 2 -1 11 7 8 31 -5 36 -11
4 -12 1 -5 -13z"/>
<path d="M8158 6783 c7 -3 16 -2 19 1 4 3 -2 6 -13 5 -11 0 -14 -3 -6 -6z"/>
<path d="M8210 6752 c0 -6 -7 -9 -15 -6 -11 5 -13 2 -9 -11 6 -15 8 -15 22 -1
9 9 13 19 9 22 -4 4 -7 2 -7 -4z"/>
<path d="M3995 6560 c-3 -6 1 -7 9 -4 18 7 21 14 7 14 -6 0 -13 -4 -16 -10z"/>
<path d="M3894 6456 c-3 -9 -9 -14 -13 -12 -4 3 -13 0 -21 -6 -13 -8 -12 -9 1
-5 9 3 22 1 28 -4 6 -5 9 -6 6 -3 -3 4 0 13 7 21 6 7 8 16 5 20 -4 3 -9 -2
-13 -11z"/>
<path d="M8826 6415 c-7 -18 29 -41 39 -24 4 6 4 13 1 16 -3 4 -6 1 -6 -5 0
-6 -7 -9 -16 -5 -11 4 -12 8 -4 13 8 5 8 10 2 14 -5 3 -12 -1 -16 -9z"/>
<path d="M3760 6360 c11 -7 11 -10 2 -10 -7 0 -10 -5 -6 -11 4 -8 9 -7 15 2 9
15 3 29 -14 29 -7 0 -6 -4 3 -10z"/>
<path d="M3730 6341 c0 -6 4 -13 10 -16 6 -3 7 1 4 9 -7 18 -14 21 -14 7z"/>
<path d="M9185 6211 c-3 -5 -2 -12 3 -15 5 -3 9 1 9 9 0 17 -3 19 -12 6z"/>
<path d="M9205 6180 c-3 -5 -1 -10 4 -10 6 0 11 5 11 10 0 6 -2 10 -4 10 -3 0
-8 -4 -11 -10z"/>
<path d="M3514 6113 c2 -10 6 -17 10 -16 15 3 16 11 2 22 -12 10 -14 9 -12 -6z"/>
<path d="M3495 6078 c1 -13 6 -21 11 -19 10 3 7 21 -5 34 -4 4 -7 -3 -6 -15z"/>
<path d="M9256 5882 c-3 -5 1 -9 9 -9 8 0 12 4 9 9 -3 4 -7 8 -9 8 -2 0 -6 -4
-9 -8z"/>
<path d="M9250 5856 c0 -2 8 -10 18 -17 15 -13 16 -12 3 4 -13 16 -21 21 -21
13z"/>
<path d="M3430 5822 c0 -5 7 -9 15 -9 8 0 12 4 9 9 -3 4 -9 8 -15 8 -5 0 -9
-4 -9 -8z"/>
<path d="M9060 5200 c0 -6 7 -10 15 -10 8 0 15 2 15 4 0 2 -7 6 -15 10 -8 3
-15 1 -15 -4z"/>
<path d="M9040 5160 c-9 -16 -8 -19 6 -13 13 5 15 3 9 -7 -5 -9 -4 -11 4 -6 6
4 8 12 5 18 -5 7 -1 9 9 5 23 -9 21 0 -3 13 -15 8 -21 6 -30 -10z"/>
<path d="M9017 5099 c7 -7 15 -10 18 -7 3 3 -2 9 -12 12 -14 6 -15 5 -6 -5z"/>
<path d="M5983 3662 c-7 -4 -9 -13 -4 -21 6 -9 10 -7 14 8 3 12 4 21 4 21 -1
0 -7 -4 -14 -8z"/>
</g>
</svg>
